<svg data-v-423bf9ae="" xmlns="http://www.w3.org/2000/svg" viewBox="0 0 403 90" class="iconLeft"><!----><!----><!----><g data-v-423bf9ae="" id="0639a270-17f6-4a20-a7b1-3eb476d1ef7f" fill="black" transform="matrix(6.036216979508284,0,0,6.036216979508284,112.62194112685856,-10.291749012697657)"><path d="M8.12 12.87C9.62 12.18 10.57 10.71 10.57 8.90C10.57 6.17 8.43 4.19 5.56 4.19C2.65 4.19 0.53 6.24 0.53 9.09C0.53 11.94 2.65 14 5.56 14L10.75 14L10.75 12.57ZM2.09 9.11C2.09 7.06 3.54 5.59 5.56 5.59C7.59 5.59 9.04 7.06 9.04 9.11C9.04 11.16 7.59 12.64 5.56 12.64C3.54 12.64 2.09 11.16 2.09 9.11ZM18.98 10.57C18.97 8.48 17.44 6.99 15.32 6.99C13.19 6.99 11.63 8.48 11.63 10.56C11.63 12.63 13.19 14.13 15.32 14.13C17.01 14.13 18.48 13.03 18.87 11.51L17.42 11.51C17.15 12.33 16.31 12.95 15.33 12.95C14.14 12.95 13.23 12.15 13.05 11.00L18.94 11.00C18.97 10.86 18.98 10.71 18.98 10.57ZM15.33 8.16C16.46 8.16 17.37 8.88 17.61 9.90L13.09 9.90C13.34 8.86 14.21 8.16 15.33 8.16ZM23.93 6.99C22.97 6.99 22.20 7.41 21.76 8.15L21.76 7.11L20.33 7.11L20.33 14L21.76 14L21.76 9.97C21.76 8.86 22.44 8.13 23.51 8.13C24.54 8.13 25.21 8.86 25.21 9.97L25.21 14L26.66 14L26.66 9.77C26.66 8.11 25.51 6.99 23.93 6.99ZM31.99 7.11L30.44 7.11L30.44 5.33L28.99 5.33L28.99 7.11L27.72 7.11L27.72 8.32L28.99 8.32L28.99 14L30.44 14L30.44 8.32L31.99 8.32ZM38.43 7.11L38.43 8.11C37.83 7.41 36.95 6.99 35.92 6.99C33.98 6.99 32.55 8.48 32.55 10.56C32.55 12.63 33.98 14.13 35.92 14.13C36.95 14.13 37.83 13.71 38.43 13.01L38.43 14L39.86 14L39.86 7.11ZM36.22 12.88C34.94 12.88 34.02 11.91 34.02 10.56C34.02 9.21 34.94 8.23 36.22 8.23C37.51 8.23 38.43 9.21 38.43 10.56C38.43 11.91 37.51 12.88 36.22 12.88ZM45.22 6.99C44.27 6.99 43.50 7.41 43.05 8.15L43.05 4.31L41.62 4.31L41.62 14L43.05 14L43.05 9.97C43.05 8.86 43.74 8.13 44.80 8.13C45.84 8.13 46.51 8.86 46.51 9.97L46.51 14L47.95 14L47.95 9.77C47.95 8.11 46.80 6.99 45.22 6.99Z"></path></g><!----><g data-v-423bf9ae="" id="560df452-f870-48df-abc5-d393cbc63b88" transform="matrix(2.994410458179972,0,0,2.994410458179972,0.08943266912044834,-1.9385669710569857)" stroke="none" fill="black"><path d="M17.572 23.933l4.106 7.095L32 13.189h-8.981V7.582L11.51.972 0 7.582v13.222l11.51 6.611 6.062-3.482zm10.96-8.744l-6.855 11.846-6.855-11.846h13.71z"></path></g><!----></svg>